<svg width="88" height="48" viewBox="0 0 88 48" xmlns="http://www.w3.org/2000/svg"><g fill="none" fill-rule="evenodd"><path d="M6.563 0v13.812c2.057-2.547 4.604-3.722 7.543-3.722 1.47 0 2.84.294 4.016.881 1.176.588 2.156 1.274 2.743 2.156.588.881 1.078 1.86 1.274 2.938.196 1.078.294 2.743.294 4.996v14.792h-6.564V22.531c0-2.645-.098-4.31-.391-4.996-.294-.686-.686-1.274-1.274-1.666-.588-.391-1.371-.587-2.35-.587-1.078 0-2.058.294-2.94.783-.881.588-1.47 1.372-1.86 2.45-.393 1.077-.589 2.644-.589 4.8V35.95H0V0h6.563zM32.23 0v13.812c2.057-2.547 4.604-3.722 7.542-3.722 1.47 0 2.841.294 4.115.881 1.175.588 2.155 1.274 2.743 2.156.587.881 1.077 1.86 1.273 2.938.196 1.078.294 2.743.294 4.996v14.792h-6.563V22.531c0-2.645-.098-4.31-.392-4.996-.294-.686-.686-1.274-1.274-1.666-.587-.391-1.371-.587-2.35-.587-1.078 0-2.058.294-2.94.783-.881.588-1.469 1.372-1.86 2.45-.393 1.077-.588 2.644-.588 4.8V35.95h-6.564V0h6.564zM0 46.922v-7.249h.882v2.94H4.31v-2.94h.882v7.25H4.31v-3.43H.882v3.43H0zm9.698-1.763l.882.098c-.098.588-.392.98-.686 1.274-.392.293-.882.49-1.47.49-.685 0-1.273-.197-1.665-.686-.392-.49-.588-1.176-.588-1.96 0-.881.196-1.567.588-2.057.392-.49.98-.685 1.568-.685.587 0 1.175.196 1.567.685.392.49.588 1.176.588 2.058v.195H7.053c0 .588.196.98.49 1.274.294.294.588.49.98.49.293 0 .587-.098.783-.294.098-.196.294-.49.392-.882zm-2.645-1.371h2.645c0-.392-.098-.784-.294-.98-.294-.294-.588-.49-.98-.49-.391 0-.685.098-.881.392-.294.196-.49.588-.49 1.078zm7.543 2.449c-.294.294-.588.49-.882.587-.294.098-.587.196-.881.196-.49 0-.882-.098-1.176-.391-.294-.294-.392-.686-.392-1.078 0-.294.098-.49.196-.686.098-.196.294-.392.392-.49l.588-.293c.196-.098.392-.098.686-.098.685-.098 1.077-.196 1.469-.294v-.196c0-.392-.098-.588-.196-.784-.196-.196-.49-.294-.882-.294-.391 0-.685.098-.881.196-.196.098-.294.392-.392.784l-.882-.294c.098-.392.196-.686.392-.882.196-.196.392-.391.686-.49a3.522 3.522 0 0 1 1.077-.195c.392 0 .686.098.98.196.294.098.49.196.588.391l.294.588v1.96c0 .783 0 1.37.098 1.567 0 .196.098.392.195.587h-.881c-.098-.097-.196-.391-.196-.587zm-.098-1.96a8.397 8.397 0 0 1-1.274.294c-.293.098-.587.098-.685.196l-.294.294c-.098.098-.098.294-.098.392 0 .196.098.392.294.588.196.196.392.196.686.196.293 0 .587-.098.881-.196.196-.196.392-.392.49-.588.098-.196.098-.49.098-.882v-.293h-.098zm5.192 2.645v-.685c-.294.49-.784.783-1.372.783-.391 0-.685-.098-1.077-.391a1.796 1.796 0 0 1-.686-.98c-.196-.392-.294-.882-.294-1.47 0-.49.098-.979.196-1.37.196-.393.392-.785.686-.98.294-.196.686-.294 1.077-.294.294 0 .49.098.784.196.196.098.392.293.588.49v-2.548h.784v7.25h-.686zm-2.547-2.644c0 .685.098 1.175.392 1.469.294.294.587.49.881.49.392 0 .686-.196.882-.49.294-.294.392-.784.392-1.47 0-.685-.098-1.273-.392-1.567-.294-.294-.588-.49-.882-.49-.392 0-.685.196-.881.49-.294.392-.392.882-.392 1.568zm4.604 2.644v-7.249h.882v2.94h3.428v-2.94h.784v7.25h-.784v-3.43H22.63v3.43h-.882zm9.6 0v-.783c-.392.588-.882.881-1.47.881-.293 0-.587-.098-.783-.196-.196-.097-.392-.293-.588-.49a4.711 4.711 0 0 1-.294-.685c0-.196-.098-.49-.098-.784v-3.232h.784v2.938c0 .49 0 .784.098.98l.294.588c.196.098.392.196.588.196.195 0 .49-.098.685-.196.196-.098.392-.294.49-.588.098-.196.098-.588.098-.98v-2.84h.784v5.191h-.588zm1.861 0v-5.191h.686v.783c.392-.587.882-.881 1.47-.881.293 0 .587.098.783.196.196.098.392.293.588.49.098.195.196.391.294.685 0 .196.098.49.098.882v3.232h-.882v-3.134c0-.392 0-.588-.098-.784a1.352 1.352 0 0 0-.294-.392c-.196-.098-.392-.196-.588-.196-.294 0-.685.098-.881.392-.294.196-.392.686-.392 1.372v2.84h-.784v-.294zm6.857-.881l.098.783c-.196.098-.392.098-.587.098-.294 0-.49-.098-.686-.195-.196-.098-.294-.196-.294-.392-.098-.196-.098-.49-.098-1.078V42.22h-.588v-.685h.588V40.26l.784-.49v1.862h.783v.685h-.783v3.527c0 .098.098.098.098.196.098 0 .196.098.293.098.098 0 .196 0 .392-.098zm4.017-.882l.783.098c-.098.588-.392.98-.685 1.274-.392.293-.784.49-1.372.49-.686 0-1.273-.197-1.665-.686-.392-.49-.588-1.176-.588-1.96 0-.881.196-1.567.588-2.057.392-.49.98-.685 1.567-.685.588 0 1.176.196 1.568.685.391.49.587 1.176.587 2.058v.195H41.34c0 .588.196.98.49 1.274.293.294.587.49.98.49.293 0 .587-.098.783-.294.196-.196.294-.49.49-.882zm-2.645-1.371h2.645c0-.392-.098-.784-.294-.98-.294-.294-.588-.49-.98-.49s-.686.098-.98.392c-.293.196-.391.588-.391 1.078zm4.408 3.134v-5.191h.686v.783c.196-.392.391-.587.49-.685.195-.098.293-.196.49-.196.293 0 .587.098.88.294l-.293.783c-.196-.098-.392-.196-.588-.196-.196 0-.294.098-.49.196-.098.098-.196.294-.293.49-.098.294-.098.686-.098 1.078v2.742h-.784v-.098z" fill="#FFF"/><g fill-rule="nonzero"><path d="M84.833 23.412c0 8.719-7.053 15.772-15.772 15.772-8.718 0-15.771-7.053-15.771-15.772 0-8.718 7.053-15.771 15.771-15.771 8.719 0 15.772 7.053 15.772 15.771z" fill="#D6001C"/><path d="M62.596 29.486h-3.037v-11.56H62.4v1.666c.49-.784.882-1.274 1.273-1.568.392-.293.784-.391 1.274-.391.686 0 1.371.196 2.057.587l-.98 2.645c-.49-.294-.98-.49-1.469-.49-.392 0-.784.098-1.077.392-.294.196-.49.686-.686 1.274-.196.588-.294 1.861-.294 3.918v3.527h.098zm13.224 0v-1.764c-.391.588-.98 1.078-1.665 1.47-.686.392-1.371.49-2.155.49-.784 0-1.47-.196-2.057-.49a2.88 2.88 0 0 1-1.372-1.47c-.293-.587-.391-1.469-.391-2.546v-7.25h3.036v5.29c0 1.666.098 2.645.196 2.94.098.39.294.685.588.88.294.197.686.295 1.176.295.49 0 .98-.098 1.37-.392.393-.294.687-.686.883-1.078.195-.392.195-1.47.195-3.134v-4.898h3.037v11.559h-2.84v.098z" fill="#FFF"/></g></g></svg>